PathFileType	4	(X/Y/Z)	Patient4_TMGait_0pt5_01_left_01.trc.trc
DataRate	CameraRate	NumFrames	NumMarkers	Units	OrigDataRate	OrigDataStartFrame	OrigNumFrames
74.468085106383	74.468085106383	6	33	mm	74.468085106383	36	       141
Frame#	Time	L.ASIS			Sacral			L.Shoulder			Chest			R.Shoulder			Neck			R.ASIS			R.Thigh.Superior			R.Thigh.Lateral			R.Thigh.Inferior			R.Patella			L.Thigh.Superior			L.Thigh.Lateral			L.Thigh.Inferior			L.Patella			L.Shank.Superior			L.Shank.Lateral			L.Shank.Inferior			R.Shank.Superior			R.Shank.Lateral			R.Shank.Inferior			R.Heel			R.Midfoot.Superior			R.Midfoot.Lateral			R.Toe			L.Heel			L.Midfoot.Lateral			L.Midfoot.Superior			L.Toe			L.Elbow			L.Wrist			R.Elbow			R.Wrist			
		X1	Y1	Z1	X2	Y2	Z2	X3	Y3	Z3	X4	Y4	Z4	X5	Y5	Z5	X6	Y6	Z6	X7	Y7	Z7	X8	Y8	Z8	X9	Y9	Z9	X10	Y10	Z10	X11	Y11	Z11	X12	Y12	Z12	X13	Y13	Z13	X14	Y14	Z14	X15	Y15	Z15	X16	Y16	Z16	X17	Y17	Z17	X18	Y18	Z18	X19	Y19	Z19	X20	Y20	Z20	X21	Y21	Z21	X22	Y22	Z22	X23	Y23	Z23	X24	Y24	Z24	X25	Y25	Z25	X26	Y26	Z26	X27	Y27	Z27	X28	Y28	Z28	X29	Y29	Z29	X30	Y30	Z30	X31	Y31	Z31	X32	Y32	Z32	X33	Y33	Z33	

36	1.640000000000	761.925683392758	953.841385006630	322.255551758368	554.979755647117	991.005816020288	492.259937623236	677.867120547769	1421.587848386922	293.246029295391	801.298195167048	1363.797771567152	444.557672196619	729.830284064838	1436.475177020213	625.056332062497	686.685397540138	1486.200342651122	442.702548564737	788.365979590210	933.254610880061	595.773371097259	802.242914805730	719.360758665555	569.258161991958	708.649073679274	617.738234225980	630.318551747019	776.292557333025	554.276444298064	551.078860631992	759.499415090276	451.529863040864	562.673169452145	841.163027867870	763.837673826604	358.150329606755	777.544804409820	635.704999570080	293.748848408463	875.383350240546	574.078469314390	357.568099768845	887.482258308630	502.430664585431	364.233608767924	869.465729859689	427.189005299022	355.892877237547	793.575182995758	302.622893701718	307.436021513159	862.338724953570	199.160949095611	375.667904687503	693.848530390763	378.836572887394	567.791623345963	586.676062151081	313.641473458535	629.861113703621	588.348540097256	208.323391075272	572.214360099775	401.129196126300	91.184582603508	544.257263344028	578.922200035296	104.239090440317	585.922604967945	477.796530462207	64.749900964994	620.530580923098	679.693213373117	35.598496605286	619.773132995635	750.690197337336	37.349046848106	421.728924803246	821.918151860263	35.346298988778	338.021484459233	904.476711529203	98.478375330335	360.627974649454	1032.034810720180	50.040650100444	329.065015694420	593.827710723210	1072.326514968188	197.779545194799	612.600377485615	812.287240903211	204.915046943424	823.835363070376	1105.939103410867	741.861181540642	1057.648369264106	1087.437266533379	648.016945756888	
37	1.653428571429	763.141286242700	955.067170972854	320.310530309967	555.344802293349	991.725552857979	489.134733104871	679.358512601162	1421.736152184533	289.529044562596	801.746992574085	1364.682972263746	441.925306083227	729.181999136543	1438.325642500269	621.554589995133	687.010184335368	1487.027832160002	438.662244205450	788.100320439628	934.105624323825	593.910263137939	806.466010560242	721.105879435204	567.458488820945	715.438583549033	617.679824227771	628.479857586134	785.470235193332	555.118030233558	550.006557148807	769.971503643284	450.657652926661	563.135373945960	841.063211990529	763.653788574848	355.116600268344	775.627264304623	635.998412832728	291.934208002264	872.880828721921	573.479717942120	355.548397072647	884.289474025641	502.021843496512	362.848798799553	865.826028407483	426.745254666276	354.725276580009	789.151851347511	302.634803057997	306.403401095771	856.714981820646	198.919740966672	375.297665637376	701.644498361565	379.067323638057	567.540096560620	591.555334825384	317.938562314659	628.624083983735	590.519307108551	212.111560405034	571.842824440812	399.606110736834	102.968054418082	542.939925393395	577.324230433672	106.651146812892	585.706972081962	474.244291103676	72.609139994841	619.565534274168	673.288403690104	34.703254553012	619.632571837930	743.993575070478	37.336133144795	421.646882369238	815.231359489278	35.389373042717	337.909287414123	897.653336289295	98.641273624622	360.547995331843	1025.277020798323	50.543733962395	328.999940784664	601.504326381757	1070.632516938971	193.681089873016	624.094057980018	810.988635199046	200.607180635509	817.514756658975	1106.905115943481	740.720779331656	1050.804769035759	1079.049542793912	647.269645190318	
38	1.666857142857	764.100590312536	956.293166000151	318.355218466416	555.448192010432	992.470863626198	485.996915105362	680.927990560868	1421.974389456106	285.986202528121	802.169720181749	1365.532958936440	439.482180829342	728.440996757515	1440.029822852980	618.259669765532	687.338684407011	1487.845113338377	434.835720878700	787.682660022063	934.872545155344	592.011347119830	810.973637574758	723.125982198550	565.728332575801	722.683480082811	617.839231212625	626.816143832625	795.218195176775	556.317613868593	549.169443737465	781.034087725202	450.239828941826	563.732925054310	840.441665225362	763.262627617524	351.880853750042	773.051852300468	636.170987741780	290.028019619786	869.676267795140	572.722672600165	353.435095820973	880.399971959401	501.501126027766	361.309738427108	861.544701896030	426.244883424329	353.413891200732	784.152311216260	302.483114365327	305.403251024637	850.757694386023	198.625203498033	374.875816060197	710.230155573432	379.679194731408	567.405726573379	597.297514837730	322.723988313291	627.367489024232	593.524856489789	216.487825135542	571.415180993965	399.234041057306	115.998212533055	541.241692300360	576.305927936367	109.571315707067	585.324942621413	471.382397356977	81.555023042959	618.329888591304	666.927912945397	33.720890546775	619.521582887786	737.188533036278	37.260797242547	421.601145004506	808.417334423566	35.348009057926	337.819910547912	890.738074271960	98.699487161959	360.470948582435	1018.433353570661	50.872750303782	328.920401509567	609.390897277658	1069.211116062550	189.520019133727	636.329144908903	810.047155435132	196.262758640592	810.424335321756	1107.567086025724	739.575901370717	1043.023500267910	1069.884857945936	647.125207605932	
39	1.680285714286	764.800674172470	957.471612135551	316.382495695465	555.282197297734	993.201128902372	482.861252966569	682.540082079991	1422.274340125343	282.658222702523	802.557336771414	1366.310001821467	437.251736904674	727.604167983826	1441.524333097922	615.213685318576	687.669659953201	1488.620193427040	431.271889103057	787.126747140550	935.527497297332	590.067584935357	815.670165205805	725.409750175731	564.049177496247	730.239822236669	618.259066778514	625.320366590574	805.316995869714	557.907624528752	548.523981176033	792.470137559616	450.329633761366	564.376602676503	839.361117558343	762.705873862861	348.574276109863	770.005582510272	636.258868294339	288.044874344330	865.934140755061	571.866217495122	351.291963463175	875.955984153425	500.892582031865	359.660687226948	856.771571243091	425.699059508286	351.989325992027	778.730570902484	302.195701297148	304.416591209640	844.569674494409	198.283840194164	374.412099037168	719.417237945916	380.700888501514	567.326942693687	603.781625859407	327.943087823394	626.078862669771	597.289407303554	221.410129594965	570.906374417104	400.057238200999	130.007515623973	539.170269489213	575.865287537725	113.037762814161	584.770206271636	469.294643811457	91.454790883025	616.828272240323	660.741613648826	32.725461186174	619.471553501285	730.319320161936	37.146089771377	421.577722982014	801.522992077769	35.241109477641	337.744540199608	883.788671612839	98.653781014730	360.397446193402	1011.548010557273	51.007988994544	328.832471041715	617.442564554933	1068.058695568814	185.317222115008	649.256918491076	809.479604923564	191.900419103156	802.591467645708	1107.868464203216	738.405287325341	1034.282293039198	1059.907539398747	647.639854519494	
40	1.693714285714	765.249804043744	958.571128465783	314.381305013137	554.856656777387	993.888541957551	479.743026800813	684.154854537065	1422.623670222114	279.579679770596	802.899427827825	1366.992982971781	435.249259805061	726.674026465410	1442.769874202229	612.448814349368	688.005374714484	1489.339246388602	428.012704265648	786.443387166568	936.072937196805	588.072141858816	820.440197165610	727.951162024816	562.391013875180	737.952761221622	618.981556219694	623.968179281907	815.537252628812	559.918383131408	548.004421292882	804.069660290407	450.968843389125	564.972763459616	837.908280240966	762.039914514230	345.319848213703	766.671843603660	636.301548541457	286.012623569126	861.823899560664	570.966986835899	349.180366000931	871.113218312727	500.227588182868	357.958539836839	851.661040530149	425.127322558338	350.497206264325	773.040952577100	301.814545936028	303.433454925585	838.246854770461	197.912402291617	373.922244710581	729.011080021155	382.152677646567	567.239223586279	610.872362476430	333.522956115174	624.748158956856	601.731817582964	226.807154958474	570.300329960204	402.080981037201	144.637993999037	536.767135732853	576.025831495832	117.055833318884	584.056593571835	468.070112614293	102.093357475676	615.090071620991	654.925617098377	31.828283819892	619.508235426852	723.426899670577	37.015512820450	421.562834231564	794.593489547777	35.093418189486	337.676025110724	876.849762979107	98.523517337379	360.326924287913	1004.657420149362	50.969819148981	328.741913440259	625.626697961962	1067.176979653368	181.098018620840	662.822988825751	809.310864553310	187.539630022989	794.063973995772	1107.789280127132	737.188254273136	1024.558752984188	1049.089872889149	648.846610613014	
41	1.707142857143	765.469428597427	959.577064232620	312.341779130402	554.198203927365	994.520362142870	476.655690894965	685.732193555433	1423.026513427146	276.776249322696	803.184487913095	1367.579178354747	433.481525635620	725.655695850591	1443.752933750980	609.984657135085	688.349206578525	1490.005955824635	425.090101615287	785.640298321957	936.539873898030	586.024173939415	825.158060836323	730.746284362094	560.719444154324	745.666315640840	620.042669429304	622.721973733914	825.655613390055	562.372832561340	547.531192944522	815.640046988437	452.184197230277	565.431517436396	836.182893359002	761.323224407021	342.219175101224	763.207449684348	636.333915761301	283.970651599683	857.499847018512	570.071176288620	347.154227833052	866.021141479796	499.538113289594	356.266864963019	846.353907845163	424.552327712213	348.992244032792	767.218364980319	301.387400396831	302.456168085942	831.868174040150	197.531892632431	373.426261975751	738.825728545026	384.042801604122	567.082595809546	618.432772330222	339.370536380212	623.371682949887	606.776965274644	232.575723781595	569.593525217076	405.272817812371	159.453801032027	534.110858117639	576.845065024688	121.586768884307	583.217946024429	467.803959884541	113.175658923516	613.172006425727	649.744645632345	31.167143652983	619.646091470676	716.543096181398	36.889249912138	421.545288605633	787.665462884355	34.930193299128	337.609814760509	869.949949857162	98.337700472157	360.259297797252	997.786754739537	50.802719824153	328.653935453751	633.917160590283	1066.576474819455	176.890344290435	676.968222392227	809.577691568940	183.202061901236	784.912085751610	1107.348369918209	735.903884563763	1013.828209008742	1037.424127488709	650.748350230525	
